<?xml version="1.0" encoding="UTF-8"?>
<!DOCTYPE svg PUBLIC "-//W3C//DTD SVG 1.1//EN" "http://www.w3.org/Graphics/SVG/1.1/DTD/svg11.dtd">
<!-- Creator: CorelDRAW 2018 (64-Bit) -->
<svg xmlns="http://www.w3.org/2000/svg" xml:space="preserve" width="159px" height="32px" version="1.1" style="shape-rendering:geometricPrecision; text-rendering:geometricPrecision; image-rendering:optimizeQuality; fill-rule:evenodd; clip-rule:evenodd"
viewBox="0 0 159 32"
 xmlns:xlink="http://www.w3.org/1999/xlink">
 <defs>
  <style type="text/css">
   <![CDATA[
    .fil1 {fill:white}
    .fil0 {fill:white;fill-rule:nonzero}
   ]]>
  </style>
 </defs>
 <g id="Layer_x0020_1">
  <metadata id="CorelCorpID_0Corel-Layer"/>
  <g id="_3160680187136">
   <path class="fil0" d="M153.03 8.63l0 1.81c-1.27,-1.46 -3.16,-2.35 -5.74,-2.35 -5.05,0 -9.21,4.43 -9.21,10.18 0,5.74 4.16,10.17 9.21,10.17 2.58,0 4.47,-0.89 5.74,-2.35l0 1.81 5.78 0 0 -19.27 -5.78 0zm-4.58 14.34c-2.66,0 -4.59,-1.81 -4.59,-4.7 0,-2.89 1.93,-4.71 4.59,-4.71 2.66,0 4.58,1.82 4.58,4.71 0,2.89 -1.92,4.7 -4.58,4.7z"/>
   <path class="fil0" d="M126.56 8.09c-2.58,0 -4.47,0.89 -5.74,2.35l0 -9.52 -5.78 0 0 26.98 5.78 0 0 -1.81c1.27,1.46 3.16,2.35 5.74,2.35 5.05,0 9.21,-4.43 9.21,-10.17 0,-5.75 -4.16,-10.18 -9.21,-10.18zm-1.16 14.88c-2.66,0 -4.58,-1.81 -4.58,-4.7 0,-2.89 1.92,-4.71 4.58,-4.71 2.66,0 4.59,1.82 4.59,4.71 0,2.89 -1.93,4.7 -4.59,4.7z"/>
   <path class="fil0" d="M77.27 28.44c5.66,0 10.21,-4.43 10.21,-10.17 0,-5.75 -4.55,-10.18 -10.21,-10.18 -5.67,0 -10.21,4.43 -10.21,10.18 0,5.74 4.54,10.17 10.21,10.17zm0 -5.63c-2.51,0 -4.43,-1.81 -4.43,-4.54 0,-2.74 1.92,-4.55 4.43,-4.55 2.5,0 4.43,1.81 4.43,4.55 0,2.73 -1.93,4.54 -4.43,4.54z"/>
   <g>
    <path class="fil1" d="M26.62 27.28c-5.88,6.12 -15.6,6.31 -21.72,0.44 -4.35,-4.19 -5.7,-10.32 -4,-15.71 -0.32,3.24 0.79,6.59 3.33,9.02 4.38,4.21 11.35,4.07 15.56,-0.31 4.21,-4.38 4.07,-11.35 -0.31,-15.56 -2.53,-2.43 -5.93,-3.41 -9.15,-2.97 5.32,-1.91 11.5,-0.81 15.85,3.38 6.12,5.87 6.31,15.6 0.44,21.71z"/>
    <path class="fil1" d="M18.6 19.58c-3.83,3.98 -10.17,4.11 -14.15,0.28 -2.98,-2.86 -3.81,-7.13 -2.43,-10.76 -0.02,1.53 0.57,3.08 1.76,4.23 2.3,2.2 5.94,2.12 8.14,-0.17 2.2,-2.29 2.13,-5.93 -0.16,-8.14 -1.2,-1.14 -2.76,-1.67 -4.3,-1.59 3.58,-1.52 7.88,-0.87 10.86,1.99 3.98,3.84 4.11,10.17 0.28,14.16z"/>
    <circle class="fil1" transform="matrix(0.00118865 0.0594885 -0.0594896 0.00118867 7.289 8.71141)" r="78"/>
   </g>
   <polygon class="fil0" points="105.02,27.9 110.8,27.9 110.8,8.63 105.02,8.63 "/>
   <path class="fil0" d="M107.91 6.94c1.88,0 3.46,-1.58 3.46,-3.47 0,-1.89 -1.58,-3.47 -3.46,-3.47 -1.89,0 -3.47,1.58 -3.47,3.47 0,1.89 1.58,3.47 3.47,3.47z"/>
   <path class="fil0" d="M96.54 12.06l0 -3.43 -5.78 0 0 19.27 5.78 0 0 -8.71c0,-3.81 3.39,-4.78 5.78,-4.39l0 -6.55c-2.43,0 -5.01,1.23 -5.78,3.81z"/>
   <path class="fil0" d="M56.73 8.09c-2.74,0 -4.51,1 -5.59,2.55 -1.08,-1.62 -2.77,-2.55 -5.05,-2.55 -2.58,0 -4.28,1 -5.16,2.31l0 -1.77 -5.78 0 0 19.27 5.78 0 0 -10.87c0,-2.27 1.08,-3.62 3,-3.62 1.85,0 2.78,1.23 2.78,3.16l0 11.33 5.78 0 0 -10.87c0,-2.27 1.08,-3.62 3,-3.62 1.85,0 2.78,1.23 2.78,3.16l0 11.33 5.78 0 0 -11.83c0,-4.82 -2.89,-7.98 -7.32,-7.98z"/>
  </g>
 </g>
</svg>
