<?xml version="1.0" encoding="UTF-8"?>
<!DOCTYPE svg PUBLIC "-//W3C//DTD SVG 1.1//EN" "http://www.w3.org/Graphics/SVG/1.1/DTD/svg11.dtd">
<!-- Creator: CorelDRAW 2018 (64-Bit) -->
<svg xmlns="http://www.w3.org/2000/svg" xml:space="preserve" width="142px" height="60px" version="1.1" style="shape-rendering:geometricPrecision; text-rendering:geometricPrecision; image-rendering:optimizeQuality; fill-rule:evenodd; clip-rule:evenodd"
viewBox="0 0 142 60"
 xmlns:xlink="http://www.w3.org/1999/xlink">
 <defs>
  <style type="text/css">
   <![CDATA[
    .fil2 {fill:#33BDBF}
    .fil1 {fill:#33BDBF}
    .fil0 {fill:#3ABEC1}
   ]]>
  </style>
 </defs>
 <g id="Layer_x0020_1">
  <metadata id="CorelCorpID_0Corel-Layer"/>
  <g id="_2301198312560">
   <path class="fil0" d="M81.02 18.1c5.61,1.31 9.18,-2.18 7.63,-7.61 -2.52,-8.89 -21.54,-6 -16.07,7.84 1.29,2.77 4.15,4.63 6.93,5.59 12.43,4.26 20.85,-11.41 12.48,-20.13 -6.2,-6.45 -15.66,-3.46 -17.37,0.09 3.24,-0.3 10.32,-3.79 15.6,3.52 2.49,3.47 2.9,11.03 -4.22,13.64 -8.41,3.08 -14.38,-9 -7.86,-12 2.48,-1.14 5.86,-0.28 7.61,1.89 1.66,2.07 0.53,3.75 -1.83,4.04 -0.27,0.04 -0.49,-0.05 -0.58,-0.34 -0.29,-0.85 0.11,-1.08 0.12,-2.07 0,-0.21 -0.06,-0.41 -0.21,-0.57 -1.66,-1.73 -4.36,-0.98 -5.34,0.94 -0.73,1.42 0.42,4.46 3.11,5.17z"/>
   <path class="fil1" d="M137.91 25.18c2.2,0 3.99,1.79 3.99,4 0,2.2 -1.79,3.99 -3.99,3.99 -2.2,0 -3.99,-1.79 -3.99,-3.99 0,-2.21 1.79,-4 3.99,-4zm-1.47 6.15l0 -4.23 1.79 0c0.46,0 0.78,0.04 0.99,0.12 0.2,0.07 0.37,0.21 0.49,0.4 0.12,0.2 0.18,0.42 0.18,0.67 0,0.32 -0.09,0.58 -0.27,0.78 -0.19,0.21 -0.47,0.34 -0.84,0.39 0.19,0.11 0.34,0.23 0.46,0.36 0.12,0.13 0.28,0.35 0.48,0.68l0.52 0.83 -1.02 0 -0.61 -0.93c-0.22,-0.32 -0.37,-0.53 -0.45,-0.61 -0.08,-0.09 -0.17,-0.15 -0.26,-0.18 -0.09,-0.03 -0.24,-0.05 -0.43,-0.05l-0.18 0 0 1.77 -0.85 0zm0.85 -2.44l0.64 0c0.4,0 0.66,-0.02 0.76,-0.05 0.1,-0.04 0.18,-0.1 0.24,-0.18 0.06,-0.08 0.09,-0.19 0.09,-0.32 0,-0.14 -0.04,-0.25 -0.12,-0.34 -0.07,-0.09 -0.18,-0.14 -0.32,-0.17 -0.07,-0.01 -0.28,-0.01 -0.62,-0.01l-0.67 0 0 1.07zm0.62 -3c1.82,0 3.29,1.47 3.29,3.29 0,1.81 -1.47,3.29 -3.29,3.29 -1.82,0 -3.29,-1.48 -3.29,-3.29 0,-1.82 1.47,-3.29 3.29,-3.29z"/>
   <g>
    <path class="fil2" d="M17.39 48.63l-6.52 0c-5.92,0 -10.77,-4.85 -10.77,-10.77 0,-5.93 4.85,-10.77 10.77,-10.77 5.92,0 10.77,4.84 10.77,10.77 0,3.79 0,7.58 0,11.37 0,5.92 -4.85,10.77 -10.77,10.77l-6.88 0 0 -0.19c0,-2.35 1.71,-4.02 4.06,-4.06l2.82 0c3.58,0 6.52,-2.93 6.52,-6.52l0 -0.6zm0 -4.25l0 -6.52c0,-3.59 -2.93,-6.52 -6.52,-6.52 -3.59,0 -6.52,2.93 -6.52,6.52 0,3.59 2.93,6.52 6.52,6.52l6.52 0zm65.44 -6.51c0,5.92 -4.84,10.77 -10.77,10.76l-2.81 0 -4.07 0 0 -0.18c0,-2.35 1.71,-4.03 4.07,-4.07l2.81 0c3.59,0 6.52,-2.93 6.52,-6.51l0 -4.67c0,-0.68 0,-1.36 0,-2.04 0,-2.35 1.72,-4.03 4.07,-4.07l0.18 0 0 4.07c0,2.23 0,4.47 0,6.71zm-48.99 -10.78c5.92,0 10.77,4.85 10.77,10.77l0 10.77 -10.77 0c-5.93,0 -10.77,-4.84 -10.77,-10.77 0,-5.92 4.84,-10.77 10.77,-10.77zm6.52 17.29l0 -6.52c0,-3.58 -2.93,-6.52 -6.52,-6.52 -3.59,0 -6.52,2.94 -6.52,6.52 0,3.59 2.93,6.52 6.52,6.52l6.52 0zm16.45 -17.29c5.92,0 10.77,4.85 10.77,10.77 0,5.93 -4.85,10.77 -10.77,10.77l-10.77 0 0 -10.77c0,-5.92 4.84,-10.77 10.77,-10.77zm-6.52 17.29l6.52 0c3.58,0 6.52,-2.93 6.52,-6.52 0,-3.58 -2.94,-6.52 -6.52,-6.52 -3.59,0 -6.52,2.94 -6.52,6.52l0 6.52zm38.04 4.25c-3.41,-0.05 -4.21,-3.23 -4.03,-4.05l-0.04 -13.42 0 -4.07 0.19 0c2.35,0.04 4.06,1.72 4.06,4.07l0 17.48 -0.18 -0.01zm12.38 -21.54c5.93,0 10.77,4.85 10.77,10.77l0 10.77 -10.77 0c-5.92,0 -10.77,-4.84 -10.77,-10.77 0,-5.92 4.85,-10.77 10.77,-10.77zm6.52 17.29l0 -6.52c0,-3.58 -2.93,-6.52 -6.52,-6.52 -3.59,0 -6.52,2.94 -6.52,6.52 0,3.59 2.93,6.52 6.52,6.52l6.52 0zm16.45 -17.29c5.93,0 10.78,4.85 10.78,10.77l0 10.78 -0.19 -0.01c-2.35,-0.03 -4.07,-1.71 -4.07,-4.06l0 -6.71c0,-3.58 -2.93,-6.52 -6.52,-6.52 -3.58,0 -6.52,2.94 -6.52,6.52l0 6.71c0,2.35 -1.71,4.03 -4.06,4.06l-0.19 0.01 0 -10.78c0,-5.92 4.85,-10.77 10.77,-10.77z"/>
   </g>
   <g>
    <path class="fil1" d="M10.87 27.27l0 0c5.82,0 10.59,4.76 10.59,10.59 0,0.95 0,11.37 0,11.37 0,5.83 -4.77,10.6 -10.59,10.59l-6.7 -0.01c0,0 0.01,-3.82 3.88,-3.88l2.82 0c3.68,0 6.7,-3.01 6.7,-6.7l0 -0.78 -6.7 0c-5.83,0 -10.59,-4.77 -10.59,-10.59l0 0c0,-5.83 4.76,-10.59 10.59,-10.59zm0 3.89l0 0c3.68,0 6.7,3.01 6.7,6.7l0 6.7 -6.7 0c-3.69,0 -6.7,-3.02 -6.7,-6.7l0 0c0,-3.69 3.01,-6.7 6.7,-6.7z"/>
    <path class="fil1" d="M82.65 37.87c0,5.82 -4.77,10.59 -10.59,10.58l-2.81 0 -3.89 0c0,0 0.01,-3.82 3.89,-3.88l2.81 -0.01c3.69,0 6.7,-3.01 6.7,-6.69l0 -0.78 0 -3.89c0,-0.68 0,-1.36 0,-2.04 0,0 0.02,-3.82 3.89,-3.89l0 3.89c0,0 0,6.71 0,6.71z"/>
    <path class="fil1" d="M33.84 27.27l0 0c5.82,0 10.59,4.77 10.59,10.59l0 10.59 -10.59 0c-5.83,0 -10.59,-4.76 -10.59,-10.59l0 0c0,-5.82 4.76,-10.59 10.59,-10.59zm0 3.89l0 0c3.69,0 6.7,3.02 6.7,6.7l0 6.7 -6.7 0c-3.69,0 -6.7,-3.01 -6.7,-6.7l0 0c0,-3.68 3.01,-6.7 6.7,-6.7z"/>
    <path class="fil1" d="M56.81 27.27l0 0c-5.83,0 -10.59,4.77 -10.59,10.59l0 10.59 10.59 0c5.82,0 10.59,-4.76 10.59,-10.59l0 0c0,-5.82 -4.77,-10.59 -10.59,-10.59zm0 3.89l0 0c-3.69,0 -6.7,3.02 -6.7,6.7l0 6.7 6.7 0c3.68,0 6.7,-3.01 6.7,-6.7l0 0c0,-3.68 -3.02,-6.7 -6.7,-6.7z"/>
    <path class="fil1" d="M88.33 48.45l0 -3.88 0 -13.41c0,0 -0.01,-3.82 -3.89,-3.89l0 3.89 0 13.41c-0.01,0 0.04,3.82 3.89,3.88z"/>
    <path class="fil1" d="M100.71 27.27l0 0c5.83,0 10.59,4.77 10.59,10.59l0 10.59 -10.59 0c-5.82,0 -10.59,-4.76 -10.59,-10.59l0 0c0,-5.82 4.77,-10.59 10.59,-10.59zm0 3.89l0 0c3.69,0 6.7,3.02 6.7,6.7l0 6.7 -6.7 0c-3.68,0 -6.7,-3.01 -6.7,-6.7l0 0c0,-3.68 3.02,-6.7 6.7,-6.7z"/>
    <path class="fil1" d="M123.68 27.27c5.83,0 10.59,4.77 10.59,10.59l0 6.71 0 3.88c-3.87,-0.06 -3.89,-3.88 -3.89,-3.88l0 -6.71c0,-3.68 -3.01,-6.7 -6.7,-6.7 -3.68,0 -6.7,3.02 -6.7,6.7l0 6.71c0,0 -0.01,3.82 -3.89,3.88l0 -3.88 0 -6.71c0,-5.82 4.77,-10.59 10.59,-10.59z"/>
   </g>
  </g>
 </g>
</svg>
